<svg xmlns="http://www.w3.org/2000/svg" viewBox="0 0 768 768" role="img" aria-label="Server logo">
  <defs>
    <filter id="glow" x="-40%" y="-40%" width="180%" height="180%">
      <feGaussianBlur stdDeviation="10" result="blur"/>
      <feMerge>
        <feMergeNode in="blur"/>
        <feMergeNode in="SourceGraphic"/>
      </feMerge>
    </filter>
    <radialGradient id="halo" cx="50%" cy="50%" r="48%">
      <stop offset="0" stop-color="#a8ff18" stop-opacity=".2"/>
      <stop offset="1" stop-color="#050607" stop-opacity="0"/>
    </radialGradient>
  </defs>
  <ellipse cx="384" cy="384" rx="300" ry="300" fill="url(#halo)"/>
  <g fill="none" stroke="#b5ff27" stroke-width="12" stroke-linecap="round" stroke-linejoin="round" filter="url(#glow)">
    <path d="M161 340 370 201l53 34-209 140 195 135v170L161 521v-70l86-56 51 35-76 45 139 91v-36L161 395Z"/>
    <path d="m452 257 20 13-62 42v117l-53-35V316Z"/>
    <path d="m501 287 104 76v249L411 730V511l140-86v-50l-102-51Z"/>
  </g>
  <g fill="none" stroke="#efffc1" stroke-width="3" stroke-linecap="round" stroke-linejoin="round">
    <path d="M161 340 370 201l53 34-209 140 195 135v170L161 521v-70l86-56 51 35-76 45 139 91v-36L161 395Z"/>
    <path d="m452 257 20 13-62 42v117l-53-35V316Z"/>
    <path d="m501 287 104 76v249L411 730V511l140-86v-50l-102-51Z"/>
  </g>
</svg>
